/* XPM */
static const char *collectable[] = {
/* columns rows colors chars-per-pixel */
"42 42 184 2 ",
"   c #7F4727",
".  c #7C472E",
"X  c #7D482C",
"o  c #814927",
"O  c #834D2C",
"+  c #8E5526",
"@  c #85512C",
"#  c #89572F",
"$  c #945A24",
"%  c #834E33",
"&  c #825239",
"*  c #865A3F",
"=  c #8A5B39",
"-  c #875434",
";  c #935A3B",
":  c #935F34",
">  c #9E6938",
",  c #98643E",
"<  c #A26A33",
"1  c #AE6C3F",
"2  c #B06D3D",
"3  c #B06D35",
"4  c #AB7031",
"5  c #B97430",
"6  c #BD7B37",
"7  c #B5753E",
"8  c #BC7B3C",
"9  c #C07C33",
"0  c #925F43",
"q  c #A05E42",
"w  c #946345",
"e  c #94674C",
"r  c #8E6952",
"t  c #906751",
"y  c #946D56",
"u  c #957058",
"i  c #A56146",
"p  c #AE6A43",
"a  c #AD6749",
"s  c #AC6A49",
"d  c #B16D42",
"f  c #B16C4C",
"g  c #AB7243",
"h  c #B57341",
"j  c #B5704F",
"k  c #BA7943",
"l  c #A57552",
"z  c #A97957",
"x  c #AC7B5B",
"c  c #B67351",
"v  c #BA7A55",
"b  c #B77958",
"n  c #9D7D6A",
"m  c #AB7962",
"M  c #BB8239",
"N  c #CB8428",
"B  c #C48133",
"V  c #C18139",
"C  c #C6893C",
"Z  c #BC8346",
"A  c #AC825E",
"S  c #B2835D",
"D  c #BA8660",
"F  c #BD8B67",
"G  c #A98774",
"H  c #A58B7D",
"J  c #AB8A79",
"K  c #B58B7A",
"L  c #B98E7D",
"P  c #B48976",
"I  c #B3907C",
"U  c #CE9644",
"Y  c #D19642",
"T  c #C08059",
"R  c #D2945C",
"E  c #C48D63",
"W  c #CA8E63",
"Q  c #CB9266",
"!  c #C4936B",
"~  c #CD9569",
"^  c #D49663",
"/  c #D69964",
"(  c #DB9B64",
")  c #D19769",
"_  c #D49D6C",
"`  c #DA9D69",
"'  c #CC9B74",
"]  c #D59E71",
"[  c #DDA16B",
"{  c #D6A073",
"}  c #DDA473",
"|  c #D9A67A",
" . c #E1A167",
".. c #E4A46A",
"X. c #E9A76C",
"o. c #E6A86E",
"O. c #EDAA6E",
"+. c #E2A771",
"@. c #E4A975",
"#. c #ECAC73",
"$. c #E5AC79",
"%. c #F1AE71",
"&. c #E7B07F",
"*. c #EDB27B",
"=. c #F1B075",
"-. c #F1B47C",
";. c #AC9185",
":. c #B99C89",
">. c #B6988B",
",. c #B9A69D",
"<. c #BFA99E",
"1. c #BCABA3",
"2. c #DFAE83",
"3. c #D8AF8F",
"4. c #D7AA86",
"5. c #DEB38F",
"6. c #DEBA9E",
"7. c #D8B499",
"8. c #CAAB98",
"9. c #E6B385",
"0. c #ECB583",
"q. c #E2B38B",
"w. c #E8B98F",
"e. c #F1B883",
"r. c #F2BB89",
"t. c #E5B893",
"y. c #E0B99A",
"u. c #E8BD99",
"i. c #F3BF90",
"p. c #C3AEA0",
"a. c #C1B0A7",
"s. c #CCB2A4",
"d. c #C6B5AD",
"f. c #CFBCAC",
"g. c #DFBEA3",
"h. c #E1BEA2",
"j. c #F1C195",
"k. c #DACABC",
"l. c #E3C1A5",
"z. c #E2C4AB",
"x. c #E4C7B1",
"c. c #E5CAB5",
"v. c #E5CFBE",
"b. c #D4C7C2",
"n. c #D9CDC7",
"m. c #D9CDC8",
"M. c #D5CBC6",
"N. c #DED1C7",
"B. c #DBD2CE",
"V. c #DFD7D4",
"C. c #DFD8D5",
"Z. c #E9D5C6",
"A. c #E7D6CA",
"S. c #E8D7C9",
"D. c #E9D7C9",
"F. c #E2D9D3",
"G. c #ECDED3",
"H. c #E6DFDB",
"J. c #EEE0D6",
"K. c #E7E2DF",
"L. c #EEE2D9",
"P. c #F0E6DE",
"I. c #ECE5E2",
"U. c #EEE9E6",
"Y. c #EFEBE9",
"T. c #F0E7E0",
"R. c #F3EAE4",
"E. c #F4EEE9",
"W. c #F2EDEA",
"Q. c #F6F2EE",
"!. c #F7F4F3",
"~. c #F8F5F3",
"^. c #FAF7F4",
"/. c #F8F6F5",
"(. c #FAF8F7",
"). c #FAF8F7",
"_. c #FCFBFA",
"`. c #FDFCFB",
"'. c #FDFDFC",
"]. c #FEFDFD",
"[. c #FEFEFE",
"{. c white",
"}. c #FFFEFE",
"|. c #FFFFFF",
/* pixels */
"{.{.{.{.{.{.{.{.{.{.{.{.{.{.{.{.{.{.{.{.{.{.{.{.{.{.{.{.{.{.{.{.{.{.{.{.{.{.{.{.{.{.",
"{.{.{.{.{.{.{.{.{.{.{.{.{.{.{.{.{.{.{.{.{.{.{.{.{.{.{.{.{.{.{.{.{.{.{.{.{.{.{.{.{.{.",
"{.{.{.{.{.{.{.{.{.{.{.{.{.{.{.{.{.{.{.{.{.{.{.{.{.{.{.{.{.{.{.{.{.{.{.{.{.{.{.{.{.{.",
"{.{.{.{.{.{.{.{.{.{.{.{.{.{.{.{.{.{.{.{.{.{.{.{.{.{.{.{.{.{.{.{.{.{.{.{.{.{.{.{.{.{.",
"{.{.{.{.{.{.{.{.{.{.{.{.{.{.{.{.{.{.{.{.{.{.{.{.{.{.{.{.{.{.{.{.{.{.{.{.{.{.{.{.{.{.",
"{.{.{.{.{.{.{.{.{.{.{.{.{.{.{.{.{.{.{.{.{.{.{.{.{.{.{.{.{.{.{.{.{.{.{.{.{.{.{.{.{.{.",
"{.{.{.{.{.{.{.{.{.{.{.{.{.{.{.{.{.{.{.{.{.{.{.{.{.{.{.{.{.{.{.{.{.{.{.{.{.{.{.{.{.{.",
"{.{.{.{.{.{.{.{.{.{.{.{.{.{.{._.(.{.{.{.{.{.{.{.{._.(.{.{.{.{.{.{.{.{.{.{.{.{.{.{.{.",
"{.{.{.{.{.{.{.{.{.{.{.{.{.{.~.T.J.E._.{.{.{.{.{.~.P.J.E._.{.{.{.{.{.{.{.{.{.{.{.{.{.",
"{.{.{.{.{.{.{.{.{.{.{.{.{.^.G.z.g.x.L.(.{.{.`.E.Z.g.6.v.E.{.{.{.{.{.{.{.{.{.{.{.{.{.",
"{.{.{.{.{.{.{.{.{.{.{.{.~.G.x.u.t.q.z.G.E.E.G.c.y.q.q.h.G.(.{.{.{.{.{.{.{.{.{.{.{.{.",
"{.{.{.{.{.{.{.{.{.{.{.^.J.l.w.j.j.0.2.y.c.c.y.2.9.j.j.t.c.Q.{.{.{.{.{.{.{.{.{.{.{.{.",
"{.{.{.{.{.{.{.{.{.{.{.R.z.9.=.-.-.=.#.@.$.$.@.#.e.i.i.9.6.T.{.{.{.{.{.{.{.{.{.{.{.{.",
"{.{.{.{.{.{.{.{.{.{.~.Z.q.#.=.=.%.%.O.O.O.O.O.#.#.-.*.} 4.A.~.{.{.{.{.{.{.{.{.{.{.{.",
"{.{.{.{.{.{.{.{.{.{.P.z.$.#.%.%.%.%.%.%.%.%.%.O.#.%.#.[ ' s.I.{.{.{.{.{.{.{.{.{.{.{.",
"{.{.{.{.{.{.{.{.{.(.Z.q.#.O.` ` X.O.%.%.O. .(  .#.%.#.[ F J b.!.{.{.{.{.{.{.{.{.{.{.",
"{.{.{.{.{.{.{.{.{.U.l.+.#.X.E D ` ..X.O...Q D ) #.%.X._ S t ,.U.{.{.{.{.{.{.{.{.{.{.",
"{.{.{.{.{.{.{.{.(.S.5.+.-.0.{ Q / ( (  ..._ ' | -.#.o.) l * >.K.{.{.{.{.{.{.{.{.{.{.",
"{.{.{.{.{.{.{.{.Q.z.| o.e.r.&.+... . ...X.#.&.0.-.#.@.E 0 & ;.F.`.{.{.{.{.{.{.{.{.{.",
"{.{.{.{.{.{.{.{.P.3.^  .-.-.-.%.#.O.O.O.%.%.-.-.-.#.{ z % O G N.`.{.{.{.{.{.{.{.{.{.",
"{.{.{.{.{.{.{.^.S.| R ( X.#.%.%.%.%.%.%.%.%.%.%.%.#.! w   + A k._.{.{.{.{.{.{.{.{.{.",
"{.{.{.{.{.{.{.Q.c.{ R R  .X.O.%.%.%.%.%.%.%.%.=.=.@.z & o $ l f.(.{.{.{.{.{.{.{.{.{.",
"{.{.{.{.{.{.{.E.g._ R R ( ..O.%.%.%.O.#.#.%.=.-.&.! w . o + w p.!.{.{.{.{.{.{.{.{.{.",
"{.{.{.{.{.{.{.R.6._ / (  .X.#.O.X.O.O.#.#.#.#.$.] l % X @ @ y d.!.{.{.{.{.{.{.{.{.{.",
"{.{.{.{.{.{.{.R.7.Q R ..#.#.X./ ^ / +.#.@.[ / W b ; . O - & H B.`.{.{.{.{.{.{.{.{.{.",
"{.{.{.{.{.{.{.R.8.b v ~ } { E c j v W ] ~ T c s i - @ # = r d.W.{.{.{.{.{.{.{.{.{.{.",
"{.{.{.{.{.{.{.E.d.m a c v b f a a f c b v f a i 0 ; < < , H V.{.{.{.{.{.{.{.{.{.{.{.",
"{.{.{.{.{.{.{.^.B.I s 2 d d p p d d d d d h h k k Z C 4 e 1.U.{.{.{.{.{.{.{.{.{.{.{.",
"{.{.{.{.{.{.{.{.I.:.g 5 6 8 7 1 2 7 k V B B V C Y U M > n M.^.{.{.{.{.{.{.{.{.{.{.{.",
"{.{.{.{.{.{.{.{.I.:.g 5 6 7 d p d h 8 B N N 9 8 6 4 : y <.U.{.{.{.{.{.{.{.{.{.{.{.{.",
"{.{.{.{.{.{.{.{.Y.p.x p p p s s s s p 2 3 2 p p , = u ,.H._.{.{.{.{.{.{.{.{.{.{.{.{.",
"{.{.{.{.{.{.{.{.(.F.s.>.K K L L L L K K P K K K J H a.H.`.{.{.{.{.{.{.{.{.{.{.{.{.{.",
"{.{.{.{.{.{.{.{.{._.U.C.m.n.n.m.m.m.m.m.m.m.m.m.m.V.E.{.{.{.{.{.{.{.{.{.{.{.{.{.{.{.",
"{.{.{.{.{.{.{.{.{.{.{._.(.(.^.(.(.(.(.(.(.(.(.(._._.{.{.{.{.{.{.{.{.{.{.{.{.{.{.{.{.",
"{.{.{.{.{.{.{.{.{.{.{.{.{.{.{.{.{.{.{.{.{.{.{.{.{.{.{.{.{.{.{.{.{.{.{.{.{.{.{.{.{.{.",
"{.{.{.{.{.{.{.{.{.{.{.{.{.{.{.{.{.{.{.{.{.{.{.{.{.{.{.{.{.{.{.{.{.{.{.{.{.{.{.{.{.{.",
"{.{.{.{.{.{.{.{.{.{.{.{.{.{.{.{.{.{.{.{.{.{.{.{.{.{.{.{.{.{.{.{.{.{.{.{.{.{.{.{.{.{.",
"{.{.{.{.{.{.{.{.{.{.{.{.{.{.{.{.{.{.{.{.{.{.{.{.{.{.{.{.{.{.{.{.{.{.{.{.{.{.{.{.{.{.",
"{.{.{.{.{.{.{.{.{.{.{.{.{.{.{.{.{.{.{.{.{.{.{.{.{.{.{.{.{.{.{.{.{.{.{.{.{.{.{.{.{.{.",
"{.{.{.{.{.{.{.{.{.{.{.{.{.{.{.{.{.{.{.{.{.{.{.{.{.{.{.{.{.{.{.{.{.{.{.{.{.{.{.{.{.{.",
"{.{.{.{.{.{.{.{.{.{.{.{.{.{.{.{.{.{.{.{.{.{.{.{.{.{.{.{.{.{.{.{.{.{.{.{.{.{.{.{.{.{.",
"{.{.{.{.{.{.{.{.{.{.{.{.{.{.{.{.{.{.{.{.{.{.{.{.{.{.{.{.{.{.{.{.{.{.{.{.{.{.{.{.{.{."
};
