/* XPM */
static const char *exit[] = {
/* columns rows colors chars-per-pixel */
"42 42 140 2 ",
"   c #D84E46",
".  c #D7554C",
"X  c #C95D56",
"o  c #D65850",
"O  c #DB5A52",
"+  c #CA635C",
"@  c #E2625A",
"#  c #E26959",
"$  c #CA6B63",
"%  c #D06C64",
"&  c #E26E61",
"*  c #E47264",
"=  c #E67E6F",
"-  c #EA7F6A",
";  c #F07D6A",
":  c #EA806B",
">  c #E98672",
",  c #ED8972",
"<  c #9F9F9E",
"1  c #BB8A84",
"2  c #A5A4A3",
"3  c #A9A8A7",
"4  c #ACADAC",
"5  c #AEB0AF",
"6  c #B5B6B5",
"7  c #B8B6B6",
"8  c #B6B8B7",
"9  c #B8B8B7",
"0  c #B4BBB9",
"q  c #B9B9B8",
"w  c #C2908C",
"e  c #C79F97",
"r  c #E98E80",
"t  c #EA9184",
"y  c #C7A199",
"u  c #CCA39D",
"i  c #F3A199",
"p  c #C0A6A1",
"a  c #CABFB7",
"s  c #E9A9A1",
"d  c #B4C1BE",
"f  c #B8C1BF",
"g  c #CAC0B8",
"h  c #BAC6C3",
"j  c #BEC8C5",
"k  c #BCCECA",
"l  c #BBD2CE",
"z  c #BDD5D2",
"x  c #BFD9D5",
"c  c #C1CFCC",
"v  c #CCCBCB",
"b  c #C1D2CF",
"n  c #D8D1CD",
"m  c #C2D6D3",
"M  c #C2DAD6",
"N  c #CFD8D7",
"B  c #C2DDD9",
"V  c #CADEDB",
"C  c #D2D2D1",
"Z  c #D6D8D7",
"A  c #D7DAD8",
"S  c #DDDDDA",
"D  c #F0C5C2",
"F  c #C5E2DD",
"G  c #CEE2DE",
"H  c #D3E1DE",
"J  c #DCE0DB",
"K  c #F2E0DE",
"L  c #C7E5E1",
"P  c #C8E5E1",
"I  c #CBE9E5",
"U  c #D7E2E0",
"Y  c #DDE2E1",
"T  c #D4EBE7",
"R  c #D2EFEA",
"E  c #D8EDEA",
"W  c #D1F0EA",
"Q  c #DAF2EE",
"!  c #DAF4F0",
"~  c #DFF8F4",
"^  c #E0E1E1",
"/  c #E8E7E7",
"(  c #E8E8E7",
")  c #E9E9E9",
"_  c #F9E5E3",
"`  c #E5F2EF",
"'  c #E3F7F3",
"]  c #ECF5F3",
"[  c #E1F9F5",
"{  c #E7FCF8",
"}  c #E7FBF8",
"|  c #E8FBF8",
" . c #E8FCF8",
".. c #F1F1F1",
"X. c #F3F2F2",
"o. c #F4F5F5",
"O. c #F5F5F5",
"+. c #F6F5F5",
"@. c #F4F6F5",
"#. c #F4F5F5",
"$. c #FCF4F4",
"%. c #FCF5F4",
"&. c #F2F9F8",
"*. c #F3F9F9",
"=. c #F1FAF9",
"-. c #F3FAF9",
";. c #F1FCFA",
":. c #F2FCFA",
">. c #F2FCFB",
",. c #F3FCFB",
"<. c #F2FDFB",
"1. c #F3FDFB",
"2. c #F2FEFC",
"3. c #F3FEFC",
"4. c #F4FDFC",
"5. c #F4FEFC",
"6. c #F5FEFC",
"7. c #F4FFFD",
"8. c #F6FEFD",
"9. c #F6FEFD",
"0. c #FCFBFA",
"q. c #FCFBFB",
"w. c #F8FEFD",
"e. c #F9FEFD",
"r. c #F9FFFE",
"t. c #FCFCFC",
"y. c #FCFDFD",
"u. c #FDFDFD",
"i. c #FEFDFC",
"p. c #FEFDFD",
"a. c #FDFEFD",
"s. c #FDFEFE",
"d. c #FCFFFE",
"f. c #FDFFFE",
"g. c #FCFFFF",
"h. c #FDFFFF",
"j. c #FEFEFE",
"k. c #FEFFFF",
"l. c #FFFFFF",
"z. c #FFFFFF",
/* pixels */
"l.l.l.l.l.l.l.l.l.l.l.l.l.l.l.l.l.l.l.l.l.l.l.l.l.l.l.l.l.l.l.l.l.l.l.l.l.l.l.l.l.l.",
"l.l.l.l.l.l.l.l.l.l.l.l.l.l.l.l.l.l.l.l.l.l.l.l.l.l.l.l.l.l.l.l.l.l.l.l.l.l.l.l.l.l.",
"l.l.l.l.l.l.l.l.l.l.l.l.l.l.l.l.l.l.l.l.l.l.l.l.l.l.l.l.l.l.l.l.l.l.l.l.l.l.l.l.l.l.",
"l.l.l.l.l.l.l.l.l.l.l.l.l.l.l.l.l.l.l.l.l.l.l.l.l.l.l.l.l.l.l.l.l.l.l.l.l.l.l.l.l.l.",
"l.l.l.l.l.l.l.l.l.l.l.l.l.l.l.l.l.l.l.l.l.l.l.l.l.l.l.l.l.l.l.l.l.l.l.l.l.l.l.l.l.l.",
"l.l.l.l.l.l.l.l.l.l.l.l.l.l.l.l.l.l.l.l.l.l.l.l.l.l.l.l.l.l.l.l.l.l.l.l.l.l.l.l.l.l.",
"l.l.l.l.l.l.l.l.l.l.l.l.l.l.l.l.l.l.l.l.l.l.l.l.l.l.l.l.l.l.l.l.l.l.l.l.l.l.l.l.l.l.",
"l.l.l.l.l.l.l.X.( ( ( ( ( ( ( ( ( ( ( ( ( ( ( ( ( ( ( ( ( ( ( ( ( ( X.l.l.l.l.l.l.l.",
"l.l.l.l.l.l.) C q 9 9 9 9 9 9 9 9 9 9 9 9 9 9 9 9 9 9 9 9 9 9 9 9 q C ) l.l.l.l.l.l.",
"l.l.l.l.l.( v 9 6 6 6 6 6 6 6 6 6 6 6 6 6 6 6 6 6 6 6 6 6 6 6 6 6 6 6 v ) l.l.l.l.l.",
"l.l.l.l.X.v 6 6 k M N Z Z Z Z Z Z Z Z Z Z Z Z Z Z Z Z Z Z Z Z N M k 6 4 v X.l.l.l.l.",
"l.l.l.l.( 6 2 f m I Q ] @.@.@.@.@.@.@.@.@.@.@.@.@.@.@.@.@.@.] ! I z 0 < 6 ( l.l.l.l.",
"l.l.l.l.( 6 4 j l B R } e.l.l.l.l.l.l.l.l.l.l.l.l.l.l.l.l.e. .R B k h 4 6 ( l.l.l.l.",
"l.l.l.l.( 7 6 M m l m R { e.l.l.l.l.l.l.l.l.l.l.l.l.l.l.e. .R B l x m 6 7 ( l.l.l.l.",
"l.l.l.l.( 7 7 H T B l m R } e.l.l.l.l.l.l.l.l.l.l.l.l.e.| R m l B T H 7 7 ( l.l.l.l.",
"l.l.l.l.( 7 7 Y ] Q B l m R } e.l.l.l.l.l.l.l.l.l.l.e.} R m l B Q ] Y 7 6 ( l.l.l.l.",
"l.l.l.l.( 7 7 ^ @.&.Q B l B R { e.0.$.$.l.l.$.$.0.e.} R B l B Q &.@.^ 7 6 ( l.l.l.l.",
"l.l.l.l.( 7 7 ^ @.l.>.Q B l B W ' K D D _ _ D D K ' W m l B Q >.l.@.^ 7 7 ( l.l.l.l.",
"l.l.l.l.( 7 7 ^ @.l.l.>.Q B z m n s r t i i t r s n m z B Q >.l.l.@.^ 7 7 ( l.l.l.l.",
"l.l.l.l.( 7 7 ^ @.l.l.l.>.Q F j u * * - ; ; : * * u j F Q >.l.l.l.@.^ 7 7 ( l.l.l.l.",
"l.l.l.l.( 7 7 ^ @.l.l.l.l.>.Q c w o # > , , > # o w c ! >.l.l.l.l.@.^ 7 7 ( l.l.l.l.",
"l.l.l.l.( 7 7 ^ @.l.l.l.l.l.| G p X . & = = & . X 4 G | l.l.l.l.l.@.^ 7 7 ( l.l.l.l.",
"l.l.l.l.( 7 7 ^ @.l.l.l.l.2.~ P q 1 + O @ @ O + 1 q P ~ 2.l.l.l.l.@.^ 7 7 / l.l.l.l.",
"l.l.l.l.( 7 7 ^ @.l.l.l.7.~ P z l j y %     % e j l x I ~ 2.l.l.l.@.^ 7 7 / l.l.l.l.",
"l.l.l.l.( 7 7 ^ @.l.l.7.[ I z l L ! J u $ $ u A ! P z x I [ 7.l.l.@.^ 7 6 ( l.l.l.l.",
"l.l.l.l.( 7 7 ^ @.l.7.~ I z l P ' 7.&.J g a S &.7.' P l z I [ 7.l.@.^ 7 6 ( l.l.l.l.",
"l.l.l.l.( 7 7 ^ @.>.[ I z z P ' e.l.l.&.` ` &.l.l.7.' P z m I ~ >.@.^ 7 6 ( l.l.l.l.",
"l.l.l.l.( 7 7 Y ] ~ I z l P ' e.l.l.l.l.l.l.l.l.l.l.7.' P z z P ! ] Y 7 7 ( l.l.l.l.",
"l.l.l.l.( 7 7 U Q I z l L ' e.l.l.l.l.l.l.l.l.l.l.l.l.7.' L l z I Q U 7 7 ( l.l.l.l.",
"l.l.l.l.( 7 6 V L m l F ' 7.l.l.l.l.l.l.l.l.l.l.l.l.l.l.e.' F l z L V 6 7 ( l.l.l.l.",
"l.l.l.l.( 9 6 c b l B E ] @.@.@.@.@.@.@.@.@.@.@.@.@.@.@.@.] E B k k k 6 q ) l.l.l.l.",
"l.l.l.l.@.C 6 6 6 h m N Z Z Z Z Z Z Z Z Z Z Z Z Z Z Z Z Z Z N b d 4 4 7 C @.l.l.l.l.",
"l.l.l.l.l.) v 4 3 6 6 6 6 6 6 6 6 6 6 6 6 6 6 6 6 6 6 6 6 6 6 6 5 2 3 v ) l.l.l.l.l.",
"l.l.l.l.l.l.( v 9 7 9 9 9 9 9 9 9 9 9 9 9 9 9 9 9 9 9 9 9 9 9 9 7 7 v ( l.l.l.l.l.l.",
"l.l.l.l.l.l.l.X.( ( ( ( ( ( ( ( ( ( ( ( ( ( ( ( ( ( ( ( ( ( ( ( ( ( X.l.l.l.l.l.l.l.",
"l.l.l.l.l.l.l.l.l.l.l.l.l.l.l.l.l.l.l.l.l.l.l.l.l.l.l.l.l.l.l.l.l.l.l.l.l.l.l.l.l.l.",
"l.l.l.l.l.l.l.l.l.l.l.l.l.l.l.l.l.l.l.l.l.l.l.l.l.l.l.l.l.l.l.l.l.l.l.l.l.l.l.l.l.l.",
"l.l.l.l.l.l.l.l.l.l.l.l.l.l.l.l.l.l.l.l.l.l.l.l.l.l.l.l.l.l.l.l.l.l.l.l.l.l.l.l.l.l.",
"l.l.l.l.l.l.l.l.l.l.l.l.l.l.l.l.l.l.l.l.l.l.l.l.l.l.l.l.l.l.l.l.l.l.l.l.l.l.l.l.l.l.",
"l.l.l.l.l.l.l.l.l.l.l.l.l.l.l.l.l.l.l.l.l.l.l.l.l.l.l.l.l.l.l.l.l.l.l.l.l.l.l.l.l.l.",
"l.l.l.l.l.l.l.l.l.l.l.l.l.l.l.l.l.l.l.l.l.l.l.l.l.l.l.l.l.l.l.l.l.l.l.l.l.l.l.l.l.l.",
"l.l.l.l.l.l.l.l.l.l.l.l.l.l.l.l.l.l.l.l.l.l.l.l.l.l.l.l.l.l.l.l.l.l.l.l.l.l.l.l.l.l."
};
