/* XPM */
static const char *player[] = {
/* columns rows colors chars-per-pixel */
"42 42 170 2 ",
"   c #4F4F4F",
".  c #525252",
"X  c #545454",
"o  c #565656",
"O  c #5A5A5A",
"+  c #656464",
"@  c #656565",
"#  c #666666",
"$  c #676767",
"%  c #686868",
"&  c #6B6A6A",
"*  c #6C6C6C",
"=  c #6E6E6E",
"-  c #6F6F6F",
";  c #706F6F",
":  c #707070",
">  c #717171",
",  c #727272",
"<  c #737272",
"1  c #737373",
"2  c #747273",
"3  c #747373",
"4  c #747374",
"5  c #747474",
"6  c #757575",
"7  c #767475",
"8  c #767676",
"9  c #777777",
"0  c #787878",
"q  c #797979",
"w  c #7B7A7A",
"e  c #7B7B7B",
"r  c #7C7B7B",
"t  c #7C7C7C",
"y  c #7D7D7D",
"u  c #7E7E7E",
"i  c #7F7E7F",
"p  c #817F80",
"a  c #818181",
"s  c #828080",
"d  c #828282",
"f  c #838383",
"g  c #848283",
"h  c #878384",
"j  c #858484",
"k  c #858585",
"l  c #868686",
"z  c #878686",
"x  c #888787",
"c  c #888788",
"v  c #888888",
"b  c #898888",
"n  c #898A89",
"m  c #898A8A",
"M  c #8A8A8A",
"N  c #8B8B8B",
"B  c #8C8B8B",
"V  c #8E8B8C",
"C  c #8C8C8C",
"Z  c #8E8C8D",
"A  c #8E8E8E",
"S  c #8F8E8E",
"D  c #8F8F8F",
"F  c #928B8D",
"G  c #909090",
"H  c #929191",
"J  c #929292",
"K  c #939292",
"L  c #939393",
"P  c #949091",
"I  c #969394",
"U  c #949494",
"Y  c #959495",
"T  c #959595",
"R  c #969696",
"E  c #989697",
"W  c #9D9799",
"Q  c #989898",
"!  c #999898",
"~  c #999999",
"^  c #9B9899",
"/  c #9A9999",
"(  c #9C9B9B",
")  c #9C9B9C",
"_  c #9C9C9C",
"`  c #9D9C9C",
"'  c #9D9D9D",
"]  c #9E9E9E",
"[  c #9F9E9E",
"{  c #9F9F9F",
"}  c #A09F9F",
"|  c #A49C9F",
" . c #A09FA0",
".. c #A0A0A0",
"X. c #A1A0A0",
"o. c #A1A1A1",
"O. c #A2A1A1",
"+. c #A2A2A2",
"@. c #A3A2A2",
"#. c #A3A3A3",
"$. c #A4A4A4",
"%. c #A5A4A5",
"&. c #A5A5A5",
"*. c #A6A4A4",
"=. c #A6A5A5",
"-. c #A6A6A6",
";. c #A7A7A7",
":. c #A8A6A6",
">. c #A8A7A8",
",. c #AAA7A8",
"<. c #A8A8A8",
"1. c #A9A8A8",
"2. c #A9A8A9",
"3. c #AAAAAA",
"4. c #ADA8AA",
"5. c #ADADAD",
"6. c #AFAFAF",
"7. c #B0B0B0",
"8. c #B1B1B1",
"9. c #B2B2B2",
"0. c #B5B5B5",
"q. c #B7B8B8",
"w. c #B9BABA",
"e. c #BABABA",
"r. c #BBBBBB",
"t. c #BDBCBD",
"y. c #C0C0C0",
"u. c #C3C3C3",
"i. c #C5C4C4",
"p. c #C8C8C8",
"a. c #C9C9C9",
"s. c #CCCCCC",
"d. c #CECECE",
"f. c #CFCFCF",
"g. c #D0D0D0",
"h. c #D2D2D2",
"j. c #D3D3D3",
"k. c #D4D4D4",
"l. c #D5D5D5",
"z. c #D8D8D8",
"x. c #DADADA",
"c. c #DBDBDB",
"v. c #DCDCDC",
"b. c #DEDEDE",
"n. c #DFDFDF",
"m. c #E0E0E0",
"M. c #E2E2E2",
"N. c #E4E4E4",
"B. c #E6E6E6",
"V. c #E7E7E7",
"C. c #E8E8E8",
"Z. c #E9E9E9",
"A. c #EAEAEA",
"S. c #ECECEC",
"D. c #EDEDED",
"F. c #EEEEEE",
"G. c #F0F0F0",
"H. c #F1F1F1",
"J. c #F3F3F3",
"K. c #F5F5F5",
"L. c #F6F6F6",
"P. c #F7F7F7",
"I. c #F8F8F8",
"U. c #F9F9F9",
"Y. c #FAFAFA",
"T. c #FBFBFB",
"R. c #FCFCFC",
"E. c #FDFDFD",
"W. c #FEFEFE",
"Q. c white",
/* pixels */
"Q.Q.Q.Q.Q.Q.Q.Q.Q.Q.Q.Q.Q.Q.Q.Q.Q.Q.Q.Q.Q.Q.Q.Q.Q.Q.Q.Q.Q.Q.Q.Q.Q.Q.Q.Q.Q.Q.Q.Q.Q.Q.",
"Q.Q.Q.Q.Q.Q.Q.Q.Q.Q.Q.Q.Q.Q.Q.Q.Q.Q.Q.Q.Q.Q.Q.Q.Q.Q.Q.Q.Q.Q.Q.Q.Q.Q.Q.Q.Q.Q.Q.Q.Q.Q.",
"Q.Q.Q.Q.Q.Q.Q.Q.Q.Q.Q.Q.Q.Q.Q.Q.Q.Q.Q.Q.Q.Q.Q.Q.Q.Q.Q.Q.Q.Q.Q.Q.Q.Q.Q.Q.Q.Q.Q.Q.Q.Q.",
"Q.Q.Q.Q.Q.Q.Q.Q.Q.Q.Q.Q.Q.Q.Q.Q.Q.Q.Q.Q.Q.Q.Q.Q.Q.Q.Q.Q.Q.Q.Q.Q.Q.Q.Q.Q.Q.Q.Q.Q.Q.Q.",
"Q.Q.Q.Q.Q.Q.Q.Q.Q.Q.Q.Q.Q.Q.Q.Q.Q.Q.Q.Q.Q.Q.Q.Q.Q.Q.Q.Q.Q.Q.Q.Q.Q.Q.Q.Q.Q.Q.Q.Q.Q.Q.",
"Q.Q.Q.Q.Q.Q.Q.Q.Q.Q.Q.Q.Q.Q.Q.Q.Q.Q.Q.Q.Q.Q.Q.Q.Q.Q.Q.Q.Q.Q.Q.Q.Q.Q.Q.Q.Q.Q.Q.Q.Q.Q.",
"Q.Q.Q.Q.Q.Q.Q.Q.Q.Q.Q.Q.Q.Q.Q.Q.Q.Q.Q.Q.Q.Q.Q.Q.Q.Q.Q.Q.Q.Q.Q.Q.Q.Q.Q.Q.Q.Q.Q.Q.Q.Q.",
"Q.Q.Q.Q.Q.Q.Q.Q.Q.Q.Q.Q.Q.Q.Q.Q.Q.Q.Q.Q.Q.Q.Q.Q.Q.Q.Q.Q.Q.Q.Q.Q.Q.Q.Q.Q.Q.Q.Q.Q.Q.Q.",
"Q.Q.Q.Q.Q.Q.Q.Q.Q.Q.Q.Q.Q.Q.Q.Q.Q.Q.Q.Q.Q.Q.Q.Q.Q.Q.Q.Q.Q.Q.Q.Q.Q.Q.Q.Q.Q.Q.Q.Q.Q.Q.",
"Q.Q.Q.Q.Q.Q.Q.Q.Q.Q.Q.Q.Q.Q.Q.Q.Q.Q.Q.Q.Q.Q.Q.Q.Q.Q.Q.Q.Q.Q.Q.Q.Q.Q.Q.Q.Q.Q.Q.Q.Q.Q.",
"Q.Q.Q.Q.Q.Q.Q.Q.Q.Q.Q.Q.Q.Q.Q.Q.Q.Q.Q.Q.Q.Q.Q.Q.Q.Q.Q.Q.Q.Q.Q.Q.Q.Q.Q.Q.Q.Q.Q.Q.Q.Q.",
"Q.Q.Q.Q.Q.Q.Q.Q.Q.Q.Q.Q.Q.Q.Q.Q.Q.Q.Q.Q.Q.Q.Q.Q.Q.Q.Q.Q.Q.Q.Q.Q.Q.Q.Q.Q.Q.Q.Q.Q.Q.Q.",
"Q.Q.Q.Q.Q.Q.Q.Q.Q.Q.Q.Q.Q.Q.Q.Q.Q.Q.Q.Q.Q.Q.Q.Q.Q.Q.Q.Q.Q.Q.Q.Q.Q.Q.Q.Q.Q.Q.Q.Q.Q.Q.",
"Q.Q.Q.Q.Q.Q.Q.Q.Q.Q.Q.Q.Q.Q.Q.Q.Q.Q.Q.Q.Q.Q.Q.Q.Q.Q.Q.Q.Q.Q.Q.Q.Q.Q.Q.Q.Q.Q.Q.Q.Q.Q.",
"Q.Q.Q.Q.Q.Q.Q.Q.Q.Q.Q.Q.Q.J.M.V.Y.Q.Q.F.M.F.Y.Q.Q.Q.Q.Q.Q.Q.Q.Q.Q.Q.Q.Q.Q.Q.Q.Q.Q.Q.",
"Q.Q.Q.Q.Q.Q.Q.Q.Q.Q.Q.Q.J.p.<.6.f.x.k.e.%.t.V.Q.Q.Q.Q.Y.F.V.J.Q.Q.Q.Q.Q.Q.Q.Q.Q.Q.Q.",
"Q.Q.Q.Q.Q.Q.Q.Q.Q.Q.Q.Y.b.^ q t M T D a q k i.P.Q.Q.Q.V.u.6.p.F.Q.Q.Q.Q.Q.Q.Q.Q.Q.Q.",
"Q.Q.Q.Q.Q.Q.Q.Q.Q.Q.Q.C.0.k a g 5 5 q a a < _ j.F.J.J.u.M t H f.Q.Q.Q.Q.Q.Q.Q.Q.Q.Q.",
"Q.Q.Q.Q.Q.Q.Q.Q.Q.Q.Y.j.H h V x q 5 t D P p t D #.7.f.e.a + < e.Y.Q.Q.Q.Q.Q.Q.Q.Q.Q.",
"Q.Q.Q.Q.Q.Q.Q.Q.Q.Q.J.e.r F ( D a t M ^ | E t * < a  .( < X & e.Y.Q.Q.Q.Q.Q.Q.Q.Q.Q.",
"Q.Q.Q.Q.Q.Q.Q.Q.Q.Q.F.7.5 I ,._ H H ^ %.4.%.T c c B M * .   t f.Y.Q.Q.Q.Q.Q.Q.Q.Q.Q.",
"Q.Q.Q.Q.Q.Q.Q.Q.Q.Q.F.7.* D :.%.#.#.%.<.<.%.%.#.#.#.^ 5 X + 6.C.Q.Q.Q.Q.Q.Q.Q.Q.Q.Q.",
"Q.Q.Q.Q.Q.Q.Q.Q.Q.Q.F.6.+ a #.%.<.<.<.<.<.<.<.<.<.<.%.k * M j.Q.Q.Q.Q.Q.Q.Q.Q.Q.Q.Q.",
"Q.Q.Q.Q.Q.Q.Q.Q.Q.Q.F.<.O < ^ %.%.%.%.<.<.<.<.<.<.<.%.M q _ M.Q.Q.Q.Q.Q.Q.Q.Q.Q.Q.Q.",
"Q.Q.Q.Q.Q.Q.Q.Q.Q.Q.J.q.& * M _ #.#.#.%.%.%.%.%.#.%._ a q 6.C.Q.Q.Q.Q.Q.Q.Q.Q.Q.Q.Q.",
"Q.Q.Q.Q.Q.Q.Q.Q.Q.Q.Q.b._ 5 4 M H D D T ^ T T H D H a t _ x.P.Q.Q.Q.Q.Q.Q.Q.Q.Q.Q.Q.",
"Q.Q.Q.Q.Q.Q.Q.Q.Q.Q.Q.P.b.%.< & q 5 + * t < * < < < 5 _ k.P.Q.Q.Q.Q.Q.Q.Q.Q.Q.Q.Q.Q.",
"Q.Q.Q.Q.Q.Q.Q.Q.Q.Q.Q.Q.Y.k.#.M #.( k H <.^ M H _ H #.f.Y.Q.Q.Q.Q.Q.Q.Q.Q.Q.Q.Q.Q.Q.",
"Q.Q.Q.Q.Q.Q.Q.Q.Q.Q.Q.Q.Q.P.x.k.V.b.j.b.J.V.j.x.V.x.x.F.Q.Q.Q.Q.Q.Q.Q.Q.Q.Q.Q.Q.Q.Q.",
"Q.Q.Q.Q.Q.Q.Q.Q.Q.Q.Q.Q.Q.Q.Y.Y.Q.Y.Y.Y.Q.Y.Y.Y.Q.Y.Y.Q.Q.Q.Q.Q.Q.Q.Q.Q.Q.Q.Q.Q.Q.Q.",
"Q.Q.Q.Q.Q.Q.Q.Q.Q.Q.Q.Q.Q.Q.Q.Q.Q.Q.Q.Q.Q.Q.Q.Q.Q.Q.Q.Q.Q.Q.Q.Q.Q.Q.Q.Q.Q.Q.Q.Q.Q.Q.",
"Q.Q.Q.Q.Q.Q.Q.Q.Q.Q.Q.Q.Q.Q.Q.Q.Q.Q.Q.Q.Q.Q.Q.Q.Q.Q.Q.Q.Q.Q.Q.Q.Q.Q.Q.Q.Q.Q.Q.Q.Q.Q.",
"Q.Q.Q.Q.Q.Q.Q.Q.Q.Q.Q.Q.Q.Q.Q.Q.Q.Q.Q.Q.Q.Q.Q.Q.Q.Q.Q.Q.Q.Q.Q.Q.Q.Q.Q.Q.Q.Q.Q.Q.Q.Q.",
"Q.Q.Q.Q.Q.Q.Q.Q.Q.Q.Q.Q.Q.Q.Q.Q.Q.Q.Q.Q.Q.Q.Q.Q.Q.Q.Q.Q.Q.Q.Q.Q.Q.Q.Q.Q.Q.Q.Q.Q.Q.Q.",
"Q.Q.Q.Q.Q.Q.Q.Q.Q.Q.Q.Q.Q.Q.Q.Q.Q.Q.Q.Q.Q.Q.Q.Q.Q.Q.Q.Q.Q.Q.Q.Q.Q.Q.Q.Q.Q.Q.Q.Q.Q.Q.",
"Q.Q.Q.Q.Q.Q.Q.Q.Q.Q.Q.Q.Q.Q.Q.Q.Q.Q.Q.Q.Q.Q.Q.Q.Q.Q.Q.Q.Q.Q.Q.Q.Q.Q.Q.Q.Q.Q.Q.Q.Q.Q.",
"Q.Q.Q.Q.Q.Q.Q.Q.Q.Q.Q.Q.Q.Q.Q.Q.Q.Q.Q.Q.Q.Q.Q.Q.Q.Q.Q.Q.Q.Q.Q.Q.Q.Q.Q.Q.Q.Q.Q.Q.Q.Q.",
"Q.Q.Q.Q.Q.Q.Q.Q.Q.Q.Q.Q.Q.Q.Q.Q.Q.Q.Q.Q.Q.Q.Q.Q.Q.Q.Q.Q.Q.Q.Q.Q.Q.Q.Q.Q.Q.Q.Q.Q.Q.Q.",
"Q.Q.Q.Q.Q.Q.Q.Q.Q.Q.Q.Q.Q.Q.Q.Q.Q.Q.Q.Q.Q.Q.Q.Q.Q.Q.Q.Q.Q.Q.Q.Q.Q.Q.Q.Q.Q.Q.Q.Q.Q.Q.",
"Q.Q.Q.Q.Q.Q.Q.Q.Q.Q.Q.Q.Q.Q.Q.Q.Q.Q.Q.Q.Q.Q.Q.Q.Q.Q.Q.Q.Q.Q.Q.Q.Q.Q.Q.Q.Q.Q.Q.Q.Q.Q.",
"Q.Q.Q.Q.Q.Q.Q.Q.Q.Q.Q.Q.Q.Q.Q.Q.Q.Q.Q.Q.Q.Q.Q.Q.Q.Q.Q.Q.Q.Q.Q.Q.Q.Q.Q.Q.Q.Q.Q.Q.Q.Q.",
"Q.Q.Q.Q.Q.Q.Q.Q.Q.Q.Q.Q.Q.Q.Q.Q.Q.Q.Q.Q.Q.Q.Q.Q.Q.Q.Q.Q.Q.Q.Q.Q.Q.Q.Q.Q.Q.Q.Q.Q.Q.Q."
};
