/* XPM */
static const char *walk[] = {
/* columns rows colors chars-per-pixel */
"42 42 149 2 ",
"   c #76B53F",
".  c #7AB43F",
"X  c #7AB93F",
"o  c #76B540",
"O  c #79B740",
"+  c #7CBA41",
"@  c #82B442",
"#  c #82BE42",
"$  c #82BC4A",
"%  c #86C142",
"&  c #8BC543",
"*  c #8EC843",
"=  c #87C04A",
"-  c #87C04B",
";  c #89C248",
":  c #8CC448",
">  c #8EC649",
",  c #8FC64A",
"<  c #8AC24C",
"1  c #88C04F",
"2  c #8FC54D",
"3  c #8DC44A",
"4  c #90C745",
"5  c #90C747",
"6  c #90C843",
"7  c #90C844",
"8  c #90C944",
"9  c #90C845",
"0  c #90C945",
"q  c #91C945",
"w  c #90C846",
"e  c #90C946",
"r  c #91C946",
"t  c #90C847",
"y  c #91C847",
"u  c #91C947",
"i  c #92C947",
"p  c #92CA47",
"a  c #91C945",
"s  c #90C648",
"d  c #90C748",
"f  c #90C749",
"g  c #91C749",
"h  c #91C74A",
"j  c #92C74B",
"k  c #91C74C",
"l  c #91C64F",
"z  c #93C74F",
"x  c #91C74A",
"c  c #91C848",
"v  c #92C848",
"b  c #92C948",
"n  c #92C849",
"m  c #92C949",
"M  c #93C949",
"N  c #93CA48",
"B  c #93CA49",
"V  c #92C84A",
"C  c #93C94A",
"Z  c #92C84B",
"A  c #93C84B",
"S  c #93C94B",
"D  c #94CA49",
"F  c #94C94B",
"G  c #94CA4A",
"H  c #96CB4B",
"J  c #93C84C",
"K  c #95C94C",
"L  c #94C84D",
"P  c #95C94D",
"I  c #95CA4C",
"U  c #95CA4D",
"Y  c #96CA4D",
"T  c #96CB4D",
"R  c #97CB4D",
"E  c #95C94E",
"W  c #96C94E",
"Q  c #96C94F",
"!  c #95CA4E",
"~  c #96CA4E",
"^  c #96CA4F",
"/  c #97CA4F",
"(  c #97CB4F",
")  c #94C94C",
"_  c #98CA4F",
"`  c #98CB4F",
"'  c #8AC150",
"]  c #92C650",
"[  c #93C751",
"{  c #93C752",
"}  c #92C653",
"|  c #95C950",
" . c #96C951",
".. c #96CA50",
"X. c #97CA50",
"o. c #96C952",
"O. c #97C953",
"+. c #98CA50",
"@. c #99CB50",
"#. c #98CA51",
"$. c #98CB51",
"%. c #99CB51",
"&. c #98CA52",
"*. c #99CB52",
"=. c #9ACB53",
"-. c #99CC51",
";. c #9ACC52",
":. c #9BCD52",
">. c #9ACC53",
",. c #9BCC53",
"<. c #99CA55",
"1. c #98C957",
"2. c #9BCC54",
"3. c #9BCC55",
"4. c #9CCC54",
"5. c #9CCD54",
"6. c #9DCD54",
"7. c #9CCC55",
"8. c #9CCD55",
"9. c #9DCD55",
"0. c #9ECE55",
"q. c #9CCC56",
"w. c #9DCC56",
"e. c #9DCD56",
"r. c #9DCC57",
"t. c #9ECD56",
"y. c #9ECD57",
"u. c #9FCE57",
"i. c #9BCC54",
"p. c #96C858",
"a. c #9CCB58",
"s. c #9CCC58",
"d. c #9DCC59",
"f. c #9ECD58",
"g. c #9FCE58",
"h. c #9FCE59",
"j. c #9FCD5B",
"k. c #9DCC59",
"l. c #A0CF58",
"z. c #A0CF59",
"x. c #A0CE5A",
"c. c #A0CE5B",
"v. c #A1CE5B",
"b. c #A2CE5C",
"n. c #A4CF5E",
"m. c #A4CF5F",
"M. c #A1CF5B",
"N. c #A4D05E",
"B. c #AAD265",
/* pixels */
"* * * & % & * * * * * * * * * 0 & * * * * * * * * * & % # # & * * * & & * * & & & & ",
"0 * % + O % * * 0 * * & % % & * & * 0 0 * * * * * * % O o + & * 0 * * * * & % % & & ",
"0 * % O O % * * 0 * & % O O % * * * * * & & & * * * % + O # & 0 0 * * * & +   + & * ",
"* * & % % & * * * * & # O + & * * Z & % # + % * 0 * & & & & * & % & & * & O   # & * ",
"* 0 * * * * * * * * Z Z & & * * Z q.T #   O % * * * * 0 0 * & # O + & * & % % & * * ",
"* & % % & & * & & * $.h.T & & & Z h.$.% # % & * * * * $.q.F & + O + & * * * 0 0 & * ",
"* % O + % & % + # % T 2.Z # O + & T Z & * * * * * * & $.q.F * % % % & * * & % # % * ",
"* # O + & * # o + % Z T l + o + f & & * * * * Z T Z & % % & * * * * * Z F & + o # * ",
"* & & & * * % # % & Z q.q.; # l q.Z * * * * * _ l.T + o O % * * * * * ,.h.Z + O % & ",
"0 * * * * * * & % + % F T & & T 2.Z & * * & & & , & # O # & * * * * * | 2.Z & % # + ",
"% # % & * & & % O   + & 6 0 0 5 & # # & * & +   + & & & & * & % % % & 0 Z 0 * # O o ",
"    # Z % + # % + + % & * 0 0 & # o O % * & O   # Z F 0 0 * % O   # & * * * & # O O ",
"o o < h.< O O % & & * * * * * * & + % & 0 & % % f h.,.0 & & % + O % * 0 0 * & & & & ",
"% % | h.l % % T l.F * & * * * * * & & * * * * * Z $.T % # % & & & & * * * * * * 0 * ",
"Z T h.n.$.Z & $.q.F % # % & & & 0 * * * * * & & 0 Z % O O % * * * * * & % % & * * * ",
"$.q.h.a.h.$.Z 0 Z & O   + # % & 0 * * * & # # % * & # O + f _ F * * * % + O % & * * ",
"| ] = % 2.l.q.F * % O O O O + % * * * * % o   # 0 * & & & $.l.q.Z 0 * % O o % * * * ",
"& # O + , $.l.q.0 & % % # $ % & * * * * & + # & * * * * 0 Z T q.h.,.Z & % % & % % * ",
"* % # % & 0 | ] # % F ,.| 2.| 5 & * * * * & & * * * * T $.f & T q.q.,.0 & & + O # & ",
"* * * * 0 & % + o # $.l.,.q.$.Z & & * * 0 * * * * * * 2.b.J & & f 2.q.T & & + O % * ",
"* 0 0 & & * % O + 2 2.| 0 * Z T ,.Z & & * * * & & % & q.n.l % # , ,.$.T T T & & & * ",
"* * & # % & & % & $.q.T Z * 0 $.q., + # & 0 * & +   # $.h.% o + ] h., J q.,.Z * * * ",
"* % + o # & * * * F F T q.$.Z Z f + o # & * * % + O # Z F % # # ; $ + % T F * * * * ",
"* & + + % * * * * * * Z | 2 % & & + + % * * * & % # % % % & * & # o O % & % # # & * ",
"* * & & * * * * * * * & % + + % * & & * * * * Z & # + + # & * * & # & * & +   + & * ",
"* * * 0 * & & & * * * & # O # & 0 * * & & % f q.$.% + # % & & * * * * & % # + % & * ",
"* * * 0 & # + # & * * * & % & * 0 * * % O O ; ,.q.f & & & & % % * * % O O # & & * * ",
"* * * * & + o + & & & & * * * * * * * & + # , 2.b.q.,.F & + O # & & # O + & * * * * ",
"* * * * & # + % % # + % * * * & % % & * Z $.| | p.p.$.F % + O # & & % % & * & % % % ",
"* * * * * & & & +     % & * & # O + % * _ b.$.% + + % * & & & & % + + % * & % O o O ",
"& * * * * * * & # + # & * 0 * % O # & * T l.q.%   + % * * * * & #   O & * & , # + % ",
"# % * * * * % # + % * * * 0 * & % & & % & $.$., % % & * * * * & % # 2 T 0 f 2.l & * ",
". # % % % f # O + % F F 0 * * * * & % + + f Z & * & % & * * * * & * q.q.Z & $.T 0 * ",
".       # | J % , T q.l._ 0 & & & & + o O & * * & + O # & & % & * 0 T f % + , Z * * ",
". + + + % q.b.h.q.h.a.| T & # + # & % % & & * * % O O # % X   % Z ,.T # o + 2.$.& & ",
". # % & Z b.B.n.$.' $ ; T T # o # & * * 0 * * * % # % & %   O % Z 2.T % + % 2.$.& & ",
"+ # % 0 F l.l.$.l $ O # T $.; # & * * * * & % # # & * * & % % % # < f & & T 2.T & * ",
"@ # % & & f f 5 T ] , & & f 0 & * * * * & % O o + & * * * & & + o O & * Z q.q.F * * ",
"@ # % + O # % & T | f & & & 0 0 * * & & & & # # % & * * & # + + + % & * 0 J f & & * ",
"@ # % + O # & * & % + # & * * * * * % + O % & & * * * & #   O % & & * * & % + O # & ",
"@ # % % % & * * & O O # & * * * * * % O O % * * * * * & % + # & * * * * * & + O # * ",
"@ # * * & * * * & # % & * * * * * * % # % & * * * * * * & & & * * * * * * & % % & * "
};
