/* XPM */
static const char *wall[] = {
/* columns rows colors chars-per-pixel */
"42 42 140 2 ",
"   c #3D8D5F",
".  c #3F905F",
"X  c #368761",
"o  c #3C8761",
"O  c #368B63",
"+  c #3A8C61",
"@  c #3E9060",
"#  c #46865E",
"$  c #4E875F",
"%  c #438C5D",
"&  c #4B8A5C",
"*  c #56895E",
"=  c #41905E",
"-  c #438662",
";  c #4C8661",
":  c #438B61",
">  c #4C8A63",
",  c #548663",
"<  c #5C8563",
"1  c #538A64",
"2  c #5B8A64",
"3  c #638564",
"4  c #6B8665",
"5  c #648A64",
"6  c #6C8A65",
"7  c #748567",
"8  c #7C8667",
"9  c #738A66",
"0  c #7B8867",
"q  c #7C8569",
"w  c #758B68",
"e  c #7B8A68",
"r  c #838967",
"t  c #82866A",
"y  c #89876A",
"u  c #808C69",
"i  c #848B69",
"p  c #8B8A69",
"a  c #8C8B69",
"s  c #8E886A",
"d  c #8F8C6B",
"f  c #8B8B6A",
"g  c #91866C",
"h  c #90896B",
"j  c #928A6A",
"k  c #928B6A",
"l  c #948B6A",
"z  c #948B6B",
"x  c #998B6B",
"c  c #9A8B6B",
"v  c #9B8B6B",
"b  c #9C8C6B",
"n  c #9B886C",
"m  c #9B896D",
"M  c #9C8A6C",
"N  c #9C8B6C",
"B  c #9F8D6C",
"V  c #9E8C6D",
"C  c #9D8E6C",
"Z  c #9C8B6C",
"A  c #94906C",
"S  c #9B906C",
"D  c #A18A6D",
"F  c #A0896E",
"G  c #A48B6D",
"H  c #A58B6D",
"J  c #A08C6C",
"K  c #A18D6C",
"L  c #A38C6D",
"P  c #A38F6D",
"I  c #A78C6D",
"U  c #A78D6D",
"Y  c #A68E6D",
"T  c #A78E6D",
"R  c #A38C6D",
"E  c #A88B6E",
"W  c #AB8B6F",
"Q  c #A88E6D",
"!  c #AB8D6E",
"~  c #AC8D6E",
"^  c #AD8C6F",
"/  c #AC8F6E",
"(  c #AF8E6E",
")  c #AC8D6E",
"_  c #B18C6F",
"`  c #B18D6F",
"'  c #B28E6F",
"]  c #B38F6F",
"[  c #B48E6F",
"{  c #B58E6F",
"}  c #B48F6F",
"|  c #B68F6F",
" . c #B38E6F",
".. c #B98F6F",
"X. c #B98F6F",
"o. c #A4916D",
"O. c #AE906E",
"+. c #A8906D",
"@. c #B0906E",
"#. c #B0906F",
"$. c #B1916F",
"%. c #B6906F",
"&. c #BA916F",
"*. c #B9926F",
"=. c #BB916F",
"-. c #B78E70",
";. c #BC8F70",
":. c #BD9070",
">. c #BD9170",
",. c #BE9170",
"<. c #BF9170",
"1. c #BD9170",
"2. c #C1926F",
"3. c #C09070",
"4. c #C09170",
"5. c #C19170",
"6. c #C29170",
"7. c #C39170",
"8. c #C19270",
"9. c #C29270",
"0. c #C39270",
"q. c #C59170",
"w. c #C69171",
"e. c #C49270",
"r. c #C59270",
"t. c #C49370",
"y. c #C59370",
"u. c #C69270",
"i. c #C79270",
"p. c #C69370",
"a. c #C79370",
"s. c #C69470",
"d. c #C79470",
"f. c #C69370",
"g. c #C89370",
"h. c #C99271",
"j. c #C89371",
"k. c #C89470",
"l. c #C99470",
"z. c #C89470",
/* pixels */
"O O X O   + O O O O O O O O O O O O O O O O O O O O O O O = + O O O O O O O O O + . ",
"O O O O O O O     O O O + O O O O O O +   O O O O O O O O + O O O O O O O O O O O O ",
"O O O O O O O +   O O O   O O     O O O   O O O X + O O O O O O O O O + + O O O O O ",
"O O O O O O O O O O O     +     . O O O O O O O o 1 1 :     %   O O O     O O O O O ",
"O O O O     O O O O + : % %     O O O O + : : : , 0 i 4 , & & : + O O O O O O   O O ",
"O O O   = =     o 1 5 6 2 & % % + % : 2 9 e e w t E { K y 0 w 6 1 + O O O O O O O O ",
"  O O O = = % & < r B K p 4 5 4 4 6 w a T @.O.~ ` 5.j.5...~ Q V i 4 > + O     O O O ",
"  O O O O % * 3 s ` 2.2.%.x k N T Q ` &.y.y.d.y.y.k.k.d.y.y.y.5.{ m 7 > + = = + O O ",
"O O X X O % < y { y.k.k.y.5.5.5.y.y.y.y.j.j.k.j.y.d.k.y.y.d.y.j.y.=.G 4 + O O O O O ",
"X O O O + 2 i ` y.j.y.y.k.k.k.k.k.j.j.y.y.y.y.d.k.k.k.y.y.y.y.y.y.y.,.k 2 O O O O O ",
"O O O O > u @.y.k.y.y.y.y.k.k.k.j.y.y.y.y.y.y.y.k.k.d.y.y.k.y.y.y.y.y.K 6 : O + + O ",
"O O O + 3 V y.k.k.k.k.y.y.y.k.k.y.y.k.k.k.d.y.y.k.d.y.y.k.k.k.k.y.y.&.A 5 + O .   O ",
".     : 6 Q j.k.k.k.k.y.y.y.k.y.y.y.k.k.k.y.y.y.d.d.y.y.k.k.k.k.y.y.T w > O O O O O ",
"O O O : 4 T k.k.k.y.y.d.y.d.k.k.k.k.k.j.y.y.y.y.y.y.y.d.k.k.y.y.y.5.z 5 % O O O O O ",
"O O O 1 8 @.k.k.k.d.y.k.k.y.y.d.k.k.y.,.~ B K { y.y.k.k.k.k.k.d.k.2.k <   O O O O O ",
"O O : 3 m 2.k.k.k.k.y.y.y.y.y.y.,.` T k w 3 4 y ~ 5.k.k.k.k.k.d.k.2.c 3 % O O O O O ",
"+   % 3 v ,.j.y.y.y.y.y.d.d.y.&.N t 4 1 : : % < t ~ 5.y.y.y.y.y.j.5.G 4 % O O O O O ",
"O O + > w Q y.k.y.d.d.y.d.y.5.N 4 * : O O O   % , 8 ~ y.y.y.y.y.k.d.` 8 ; O O O O X ",
"    O + , z 5.j.k.y.y.k.d.y.;.s < %   O O O O   o < N y.y.k.y.d.k.k.=.k , X O O O O ",
"O O O O ; r { j.y.y.y.d.k.d.&.f 1 %   O O O O O O 1 l 5.y.y.y.y.k.k.y.V 3 + O O O O ",
"O O O O : 9 Q y.y.y.y.y.j.d.%.i > O O O O O O O O 1 d ,.j.k.y.y.j.k.d.o.6 + O O O O ",
"O O O O + 6 V y.k.k.d.y.j.y.~ w : O O O O   =   O 1 a :.y.k.k.k.y.j.y.Q 9 %   = + O ",
"O O O O + 2 a &.k.j.d.y.j.y.Q 4 - O O O O . =   - 2 x ,.k.k.d.k.y.j.y.~ 0 $       O ",
"O +   + O : w T y.j.y.d.j.y.{ i , + O O O + =   % 5 N y.k.k.y.y.k.k.d.=.c 4 : O O O ",
"O . = . O + , k =.j.y.k.k.k.y.~ t , : : O O % & * 6 G y.k.k.y.y.k.k.k.y.` i > O O O ",
"O O + O O   ; t ,.j.k.k.k.j.j.y.~ p 6 2 > > > < q m &.d.k.k.d.d.k.k.j.j.` r ;   O O ",
"O O + O O O 1 t ;.j.y.y.k.y.y.y.5.%.Q x f f p z W ;.y.d.y.k.k.y.y.k.j.y.Q 9 &     O ",
"O O O O X O < g ,.j.y.d.k.y.y.y.k.k.y.5.&.&.&.,.y.d.k.k.y.k.k.y.y.d.d.y.G 3 &     % ",
"O O O O O o 4 G 5.y.y.k.d.y.y.k.k.k.k.k.y.d.d.y.y.d.k.k.k.k.y.d.k.y.y.5.c 3 - % % = ",
"O O +   O : 7 ~ y.j.y.d.d.y.y.k.k.y.y.y.y.k.k.d.y.k.k.y.y.d.y.y.d.d.y.{ p , +       ",
"O O O O + 2 k =.k.y.y.y.y.k.k.k.k.y.y.y.y.y.k.k.k.k.k.y.y.y.y.y.y.k.y.Q w : O O O O ",
"O O O O : 6 K 5.k.d.y.y.y.d.k.k.d.y.k.k.y.y.y.d.k.k.j.y.y.d.y.y.y.y.y.T 6 :   O O O ",
". + O O + 2 s ..j.k.k.y.y.y.k.y.y.k.k.k.k.k.y.j.k.j.j.j.k.k.k.k.d.y.` s 2 + O O O O ",
"=   O O O + 3 m ..y.k.d.y.j.k.y.y.k.k.k.k.k.y.5.=.,.,.5.d.k.k.k.y.{ p 3 % O O O O O ",
"= =   O O O - 3 t ~ y.k.k.k.k.k.k.k.k.y.j.y.%.K s r y c ~ ,.y.y.{ k 3 %   O O O O O ",
"+ +     O O O o 2 p @.5.y.5.y.y.k.y.&.%.%.+.p 6 < ; , 4 8 x o.K p 3 - O O O O O O O ",
"O O O O O O O O : 2 u S V x K ` ~ N p r u w 1 % %     % > 5 6 5 1 + O O O O O O O X ",
"O O O O O O O O O + > 2 3 , 4 q 8 3 , > > : O O % %   O O + : : O O O O O O O O O   ",
"O O O O O O O O   @ O + % - - ; ; # % %   O O O O O O O O O O O O O O O O O O O = = ",
". =   O O O O + = + O O   O O O O O = =   O O O O O O O   O O O O O O O O O O O     ",
". =   O O O O O O O O O O O O O O O     O O O O + O O     O O O O O O O + = O O O O ",
"O O O O O O O O O O O O O O O O O O O O O O O + = O O O O O O O O O O O + = O O O O "
};
